<svg width="6" height="7" viewBox="0 0 6 7" fill="none" xmlns="http://www.w3.org/2000/svg">
<path d="M2.73458 6.56722C1.1266 4.06961 0.828125 3.81328 0.828125 2.89537C0.828125 1.63804 1.77944 0.618774 2.95295 0.618774C4.12646 0.618774 5.07778 1.63804 5.07778 2.89537C5.07778 3.81328 4.7793 4.06961 3.17132 6.56722C3.0658 6.73054 2.84009 6.73053 2.73458 6.56722ZM2.95295 3.84396C3.44191 3.84396 3.83829 3.41926 3.83829 2.89537C3.83829 2.37148 3.44191 1.94679 2.95295 1.94679C2.46399 1.94679 2.06761 2.37148 2.06761 2.89537C2.06761 3.41926 2.46399 3.84396 2.95295 3.84396Z" fill="#98A2B3"/>
</svg>
